<svg width="425" height="293" viewBox="0 0 425 293" fill="none" xmlns="http://www.w3.org/2000/svg">
<path d="M408.956 2.11908C402.529 -0.605239 395.284 -0.666981 388.811 1.94742C382.338 4.56182 377.168 9.63855 374.436 16.0624L272.381 256.264C269.65 262.695 269.586 269.947 272.202 276.426C274.818 282.904 279.9 288.078 286.331 290.809C292.762 293.54 300.014 293.604 306.492 290.988C312.971 288.372 318.144 283.29 320.875 276.859L422.904 36.6613C425.635 30.2311 425.7 22.9795 423.084 16.5016C420.468 10.0237 415.386 4.85013 408.956 2.11908V2.11908Z" fill="#7CB8FC"/>
<path d="M335.398 2.11902C328.969 -0.612175 321.717 -0.677545 315.24 1.93729C308.762 4.55213 303.588 9.63302 300.856 16.0624L223.97 197.058L152.752 16.4838C150.573 11.0118 146.612 6.43513 141.509 3.49438C136.406 0.553634 130.46 -0.57909 124.633 0.279524L124.497 0.301475C124.145 0.354157 123.794 0.41123 123.447 0.481474L123.101 0.551717C122.808 0.610253 122.527 0.671716 122.258 0.736106L121.691 0.885374L121.046 1.06098L120.286 1.29366L119.847 1.43854C119.531 1.5483 119.22 1.66244 118.908 1.78537L118.68 1.86878H118.627C118.289 2.00049 117.951 2.14537 117.617 2.3078L117.402 2.4C117.112 2.5317 116.827 2.67219 116.546 2.83902L116.19 3.01024L116.028 3.10243C110.202 6.16633 105.733 11.298 103.498 17.4892L2.05347 256.264C-0.643415 262.688 -0.685431 269.919 1.93662 276.374C4.55868 282.829 9.63121 287.982 16.044 290.706C22.4567 293.429 29.6873 293.502 36.1531 290.906C42.6188 288.311 47.7931 283.26 50.5434 276.859L127.429 95.8633L198.643 276.442C200.905 282.117 205.08 286.822 210.445 289.743C215.811 292.664 222.029 293.616 228.022 292.435L228.194 292.4L229.208 292.176L229.576 292.08C229.853 292.009 230.125 291.939 230.402 291.86L230.955 291.685C231.174 291.619 231.394 291.553 231.605 291.478L232.307 291.219C232.448 291.167 232.588 291.123 232.746 291.066L232.838 291.026C233.08 290.929 233.313 290.828 233.55 290.723C233.787 290.618 233.896 290.583 234.063 290.504L234.502 290.297C240.761 287.305 245.589 281.967 247.941 275.441L349.355 36.6612C350.707 33.4768 351.418 30.0573 351.448 26.5978C351.479 23.1384 350.827 19.7069 349.531 16.4993C348.235 13.2917 346.32 10.3708 343.895 7.90342C341.47 5.43603 338.583 3.47048 335.398 2.11902V2.11902Z" fill="#839BEC"/>
<path d="M126.002 240.214C140.55 240.214 152.344 228.42 152.344 213.872C152.344 199.324 140.55 187.531 126.002 187.531C111.455 187.531 99.6611 199.324 99.6611 213.872C99.6611 228.42 111.455 240.214 126.002 240.214Z" fill="#7CB8FC"/>
</svg>
