<svg xmlns="http://www.w3.org/2000/svg" viewBox="0 0 968.19 667.19"><title>Asset 2</title><g id="Layer_2" data-name="Layer 2"><g id="Layer_1-2" data-name="Layer 1"><path d="M931.63,4.81A60,60,0,0,0,853,36.57L620.54,583.7A60,60,0,1,0,731,630.61L963.4,83.49A60,60,0,0,0,931.63,4.81Z"/><path d="M764.08,4.81A60,60,0,0,0,685.4,36.57L510.27,448.84,348.05,37.53A59.59,59.59,0,0,0,284,.62l-.31.05c-.8.12-1.6.25-2.39.41l-.79.16q-1,.2-1.92.42L277.3,2l-1.47.4-1.73.53-1,.33c-.72.25-1.43.51-2.14.79l-.52.19-.12,0c-.77.3-1.54.63-2.3,1l-.49.21c-.66.3-1.31.62-1.95,1l-.81.39-.37.21a60.07,60.07,0,0,0-28.54,32.77L4.79,583.7a60,60,0,0,0,110.45,46.91L290.37,218.34,452.58,629.66a59.63,59.63,0,0,0,66.92,36.43l.39-.08,2.31-.51.84-.22c.63-.16,1.25-.32,1.88-.5l1.26-.4c.5-.15,1-.3,1.48-.47l1.6-.59c.32-.12.64-.22,1-.35l.21-.09c.55-.22,1.08-.45,1.62-.69s.79-.32,1.17-.5l1-.47a60.08,60.08,0,0,0,30.61-33.84l231-543.89A60,60,0,0,0,764.08,4.81Z"/><circle cx="287.12" cy="487.14" r="60"/></g></g></svg>