<svg width="20" height="20" viewBox="0 0 20 20" fill="none" xmlns="http://www.w3.org/2000/svg">
<path d="M12.6831 12.8281C12.3175 13.1924 11.8858 13.4836 11.4111 13.6861C10.5564 14.0469 9.60283 14.0996 8.71359 13.8351C7.82434 13.5706 7.05461 13.0054 6.53605 12.2361L4.87805 13.3551C5.31049 13.9932 5.86065 14.543 6.49905 14.9751C7.1487 15.4144 7.87864 15.7213 8.64705 15.8781C9.83606 16.1201 11.0704 15.9982 12.1891 15.5281C12.901 15.2259 13.5483 14.7901 14.0961 14.2441C14.3681 13.9731 14.6161 13.6731 14.8301 13.3551L13.1721 12.2361C13.0277 12.4481 12.864 12.6463 12.6831 12.8281V12.8281Z" fill="#1B1C22"/>
<path d="M10 0C4.486 0 0 4.486 0 10C0 15.514 4.486 20 10 20C15.514 20 20 15.514 20 10C20 4.486 15.514 0 10 0ZM10 2C12.953 2 15.531 3.613 16.918 6H3.082C4.469 3.613 7.047 2 10 2ZM10 18C5.589 18 2 14.411 2 10C2 9.309 2.098 8.641 2.264 8H3V9C3 9.53043 3.21071 10.0391 3.58579 10.4142C3.96086 10.7893 4.46957 11 5 11H7C7.53043 11 8.03914 10.7893 8.41421 10.4142C8.78929 10.0391 9 9.53043 9 9H11C11 9.53043 11.2107 10.0391 11.5858 10.4142C11.9609 10.7893 12.4696 11 13 11H15C15.5304 11 16.0391 10.7893 16.4142 10.4142C16.7893 10.0391 17 9.53043 17 9V8H17.736C17.902 8.641 18 9.309 18 10C18 14.411 14.411 18 10 18Z" fill="#1B1C22"/>
</svg>
