<svg width="40" height="40" viewBox="0 0 40 40" fill="none" xmlns="http://www.w3.org/2000/svg">
<path fill-rule="evenodd" clip-rule="evenodd" d="M20 40C31.0457 40 40 31.0457 40 20C40 8.95435 31.0457 0 20 0C8.95435 0 0 8.95435 0 20C0 31.0457 8.95435 40 20 40ZM26.5828 11.8145C27.3958 12.7312 28.4783 13.3665 29.6748 13.6296H29.7228C30.1177 13.7112 30.52 13.7512 30.9232 13.7498V17.8308C28.8706 17.8376 26.8678 17.1995 25.1975 16.0063V24.4087C25.1937 25.9177 24.7416 27.3914 23.8983 28.6426C23.0551 29.894 21.8589 30.8665 20.4617 31.4363C19.0646 32.0061 17.5295 32.1479 16.0516 31.8435C14.5739 31.5391 13.2198 30.802 12.1617 29.7263C11.1293 28.6689 10.4276 27.3335 10.1427 25.8835C9.85767 24.4333 10.0017 22.9316 10.5571 21.5623C11.1125 20.1929 12.0552 19.0151 13.2698 18.1733C14.4843 17.3315 15.918 16.8621 17.3953 16.8225C17.6326 16.8171 17.87 16.822 18.1067 16.8372C18.27 16.8474 18.4331 16.8625 18.5956 16.8826V21.0837C18.2535 20.9783 17.8973 20.9258 17.5393 20.9277C16.892 20.9255 16.257 21.1045 15.7061 21.4441C15.155 21.7839 14.7102 22.2712 14.4218 22.8506C14.1332 23.4302 14.0127 24.0789 14.0736 24.7231C14.1345 25.3677 14.3745 25.9822 14.7665 26.4973C15.204 27.0793 15.8136 27.5088 16.5088 27.7251C17.204 27.9414 17.9496 27.9336 18.6401 27.7024C19.3306 27.4714 19.9308 27.0291 20.3558 26.438C20.7809 25.8467 21.0092 25.1367 21.0083 24.4087V8H25.1495V8.52808C25.2681 9.74756 25.7698 10.8979 26.5828 11.8145Z" fill="#D5CCFF"/>
</svg>
